<?xml version="1.0" encoding="UTF-8" standalone="no"?>
<!-- Created with Inkscape (http://www.inkscape.org/) -->

<svg
   xmlns:dc="http://purl.org/dc/elements/1.1/"
   xmlns:cc="http://creativecommons.org/ns#"
   xmlns:rdf="http://www.w3.org/1999/02/22-rdf-syntax-ns#"
   xmlns:svg="http://www.w3.org/2000/svg"
   xmlns="http://www.w3.org/2000/svg"
   xmlns:sodipodi="http://sodipodi.sourceforge.net/DTD/sodipodi-0.dtd"
   xmlns:inkscape="http://www.inkscape.org/namespaces/inkscape"
   width="70mm"
   height="70mm"
   viewBox="0 0 70 70"
   version="1.1"
   id="svg8"
   inkscape:version="0.92.3 (2405546, 2018-03-11)"
   sodipodi:docname="showcase.svg">
  <defs
     id="defs2" />
  <sodipodi:namedview
     id="base"
     pagecolor="#ffffff"
     bordercolor="#666666"
     borderopacity="1.0"
     inkscape:pageopacity="0.0"
     inkscape:pageshadow="2"
     inkscape:zoom="0.98994949"
     inkscape:cx="326.176"
     inkscape:cy="106.32992"
     inkscape:document-units="mm"
     inkscape:current-layer="layer1"
     showgrid="false"
     showborder="true"
     inkscape:showpageshadow="false"
     inkscape:window-width="1920"
     inkscape:window-height="991"
     inkscape:window-x="-10"
     inkscape:window-y="-10"
     inkscape:window-maximized="1" />
  <metadata
     id="metadata5">
    <rdf:RDF>
      <cc:Work
         rdf:about="">
        <dc:format>image/svg+xml</dc:format>
        <dc:type
           rdf:resource="http://purl.org/dc/dcmitype/StillImage" />
        <dc:title></dc:title>
      </cc:Work>
    </rdf:RDF>
  </metadata>
  <g
     inkscape:label="Layer 1"
     inkscape:groupmode="layer"
     id="layer1"
     transform="translate(0,-227)">
    <g
       id="g86"
       transform="matrix(0.47683923,0,0,0.47683923,-8.2970033,219.08447)">
      <circle
         id="circle28"
         r="72.400002"
         cy="90"
         cx="90.800003"
         stroke-miterlimit="10"
         style="fill:none;stroke:#424142;stroke-width:2;stroke-miterlimit:10" />
      <g
         id="g60">
	<path
   id="path30"
   d="M 60.9,88.4 C 54,85.9 49,82.9 45.9,79.4 v 35 c 0,3 1.5,5.9 3.9,8.6 6.7,7.4 22.1,12.6 40.6,12.8 0.1,0 0.2,0 0.3,0 0.3,0 0.6,0 0.9,0 h 1.1 c 12.4,-0.1 23.4,-2.5 31.3,-6.3 8.2,-3.8 13.3,-9.2 13.3,-15.1 v -35 c -3.1,3.5 -8.1,6.5 -15,9 -34.5,12.6 -61.4,0 -61.4,0 z m 30.3,38.1 h -0.8 c -0.2,0 -0.5,0 -0.7,0 0,0 -0.1,0 -0.1,0 -14,-0.1 -25.7,-4.1 -30.8,-9.7 l 10,-9.9 c 0.8,-0.8 2.1,-0.8 2.8,0 l 2.6,2.6 6.7,-6.7 c 0.8,-0.8 2.1,-0.8 2.8,0 l 6.7,6.6 2,2 4.7,-4.6 c 0.8,-0.8 2.1,-0.8 2.8,0 l 15,14.9 c -6,3 -14.4,4.7 -23.7,4.8 z m 21.5,-16.8 c -3.1,0 -5.6,-2.5 -5.6,-5.6 0,-3.1 2.5,-5.6 5.6,-5.6 3.1,0 5.6,2.5 5.6,5.6 0,3.1 -2.5,5.6 -5.6,5.6 z"
   inkscape:connector-curvature="0"
   style="fill:#424142" />

	<path
   id="path32"
   d="m 58.3,57.9 c -6,2.7 -12.5,6.9 -12.5,12.8 0,7.1 9.5,11.9 16.2,14.3 V 60.4 c 0.1,-2 -1.9,-3.3 -3.7,-2.5 z"
   inkscape:connector-curvature="0"
   style="fill:#424142" />

	<path
   id="path34"
   d="m 124.7,57.9 c -1.8,-0.8 -3.8,0.5 -3.8,2.5 V 85 c 6.7,-2.4 16.2,-7.2 16.2,-14.3 0.1,-5.9 -6.4,-10.1 -12.4,-12.8 z"
   inkscape:connector-curvature="0"
   style="fill:#424142" />

	<path
   id="path36"
   d="m 88.4,57.6 c -0.2,0 -0.4,0 -0.6,-0.1 0.2,0.1 0.4,0.1 0.6,0.1 z"
   inkscape:connector-curvature="0"
   style="fill:#424142" />

	<path
   id="path38"
   d="m 87.5,57.5 c -0.1,0 -0.3,0 -0.4,0 0.2,0 0.3,0 0.4,0 z"
   inkscape:connector-curvature="0"
   style="fill:#424142" />

	<path
   id="path40"
   d="M 101.6,51.9 H 82.2 c -0.6,0 -1.2,0.5 -1.2,1.2 0,0.3 0.1,0.5 0.3,0.7 v 2.9 c 0,0.4 0.4,0.7 1.2,1 v 1.5 c 0,0.6 0.5,1.1 1.1,1.1 h 6.8 c 0.1,0 0.2,0 0.3,-0.1 l 0.8,-0.6 c 0.2,-0.2 0.5,-0.2 0.7,0 l 0.8,0.6 c 0.1,0.1 0.2,0.1 0.3,0.1 h 6.8 c 0.6,0 1.1,-0.5 1.1,-1.1 v -1.5 c 0.7,-0.3 1.2,-0.7 1.2,-1 v -2.9 c 0.2,-0.2 0.3,-0.4 0.3,-0.7 0,-0.6 -0.5,-1.2 -1.1,-1.2 z m -0.8,4.4 c 0,0.2 -0.1,0.3 -0.3,0.4 -1.2,0.5 -4.2,1.1 -8.7,1.1 -4.5,0 -7.5,-0.6 -8.7,-1.1 -0.2,-0.1 -0.3,-0.2 -0.3,-0.4 v -1.4 c 0,-0.2 0.2,-0.4 0.4,-0.4 h 17.1 c 0.2,0 0.4,0.2 0.4,0.4 v 1.4 z"
   inkscape:connector-curvature="0"
   style="fill:#424142" />

	<path
   id="path42"
   d="m 90.5,57.1 c 0.1,-0.3 0.2,-0.7 0.2,-1 0,-0.4 -0.1,-0.7 -0.2,-1 h -1.4 c 0.2,0.3 0.4,0.6 0.4,1 0,0.4 -0.1,0.7 -0.3,0.9 0.4,0.1 0.8,0.1 1.3,0.1 z"
   inkscape:connector-curvature="0"
   style="fill:#424142" />

	<path
   id="path44"
   d="m 96,57.6 c -0.2,0 -0.4,0 -0.6,0.1 0.2,-0.1 0.4,-0.1 0.6,-0.1 z"
   inkscape:connector-curvature="0"
   style="fill:#424142" />

	<path
   id="path46"
   d="m 96.7,57.5 c -0.1,0 -0.3,0 -0.4,0 0.1,0 0.2,0 0.4,0 z"
   inkscape:connector-curvature="0"
   style="fill:#424142" />

	<path
   id="path48"
   d="m 86.2,56.1 c 0,-0.4 0.1,-0.7 0.4,-1 h -1.4 c -0.1,0.3 -0.2,0.7 -0.2,1 0,0.2 0,0.3 0,0.4 0.4,0.1 0.8,0.2 1.3,0.2 0,-0.1 -0.1,-0.3 -0.1,-0.6 z"
   inkscape:connector-curvature="0"
   style="fill:#424142" />

	<path
   id="path50"
   d="m 94.3,56.1 c 0,-0.4 0.1,-0.7 0.4,-1 h -1.4 c -0.1,0.3 -0.2,0.7 -0.2,1 0,0.4 0.1,0.7 0.2,1 0.5,0 0.9,0 1.3,-0.1 -0.2,-0.2 -0.3,-0.5 -0.3,-0.9 z"
   inkscape:connector-curvature="0"
   style="fill:#424142" />

	<path
   id="path52"
   d="m 98.8,56.6 c 0,-0.1 0,-0.3 0,-0.4 0,-0.4 -0.1,-0.7 -0.2,-1 h -1.4 c 0.2,0.3 0.4,0.6 0.4,1 0,0.2 -0.1,0.5 -0.2,0.7 0.5,-0.2 1,-0.3 1.4,-0.3 z"
   inkscape:connector-curvature="0"
   style="fill:#424142" />

	<path
   id="path54"
   d="m 81.5,45.3 c -0.2,0.3 -0.4,0.6 -0.5,1 0.2,-0.3 0.3,-0.5 0.5,-0.8 0,0 0,0 0,0 0,0.1 0,0.1 0,0.2 0,0 0,0 0,0 -0.4,1.6 -0.5,3.3 -0.4,5 0.3,-0.2 0.7,-0.3 1.1,-0.3 h 2.3 c 0,0 0,0 0,0 0,-0.9 0.7,-1.6 1.6,-1.6 0,0 0,0 0,0 h 0.8 c 0.7,-0.1 1.3,0 2,-0.1 0.6,0 1.2,0 1.8,0 h 1.7 c 0.6,0 1.3,0 1.9,0 0.5,0 0.9,0 1.4,0 0.4,0 0.8,0 1.2,0 0.4,0 0.8,0 1.2,0.1 0.4,0.1 0.8,0.4 1,0.8 0.1,0.2 0.2,0.5 0.2,0.7 h 2.3 c 0.3,0 0.5,0 0.7,0.1 V 48 c 0,-0.2 -0.1,-0.5 -0.1,-0.7 0,0.1 0.1,0.2 0.1,0.3 0.1,0.2 0.1,0.3 0.2,0.5 0.1,0.2 0.2,0.5 0.2,0.7 0,0 0,-0.1 0,-0.1 -0.2,-0.8 -0.3,-1.5 -0.7,-2.2 0,-0.1 -0.1,-0.1 -0.1,-0.2 0,0 0,0 0,0 0,-0.1 -0.1,-0.2 -0.1,-0.3 -0.1,-0.3 -0.2,-0.6 -0.3,-0.9 -0.1,-0.2 -0.2,-0.5 -0.2,-0.7 0,0 0,-0.1 0,-0.1 0,0 0,0 0.1,0 0.3,0.4 0.6,0.9 0.8,1.3 0,-0.1 -0.1,-0.3 -0.2,-0.4 -0.3,-0.6 -0.6,-1.2 -1.1,-1.7 -0.1,-0.1 -0.2,-0.2 -0.3,-0.3 -0.5,-0.7 -1.1,-1.4 -1.9,-1.8 0,0 0,0 -0.1,0 -0.4,-0.2 -0.8,-0.3 -1.1,-0.5 -0.1,0 -0.2,-0.1 -0.3,-0.1 0.2,0 0.4,0 0.6,0.1 1.1,0.2 2.1,0.5 3.1,1 0,0 -0.1,-0.1 -0.1,-0.1 -1.2,-0.8 -2.5,-1.2 -3.9,-1.4 -0.1,0 -0.1,0 -0.2,0 -0.5,0 -1,-0.1 -1.4,-0.2 -0.2,-0.1 -0.4,-0.1 -0.6,-0.2 -0.3,0.1 -0.5,0 -0.7,0 -0.1,0 -0.1,0 -0.2,0 0,0 0,0 0,0 h 2.4 c 0,0 0,-0.1 -0.1,-0.1 -1.1,-0.2 -2.1,-0.3 -3.2,-0.2 -0.4,0 -0.7,0 -1.1,0 -0.2,0 -0.3,0 -0.5,0 0,0 0,0 0,0 0.8,-0.1 1.6,-0.3 2.4,-0.5 -0.8,0 -1.6,0.1 -2.4,0.2 -0.4,0.1 -0.9,0.2 -1.3,0.3 -0.6,0.1 -1.3,0.1 -1.9,0.2 1.3,-0.6 2.6,-0.9 4,-1 -0.3,0 -0.5,0 -0.8,0 -1,0 -1.9,0.2 -2.8,0.4 -0.8,0.2 -1.5,0.5 -2.1,1 -0.1,0.1 -0.3,0.2 -0.4,0.2 0,0 0,0 0,-0.1 0.3,-0.2 0.6,-0.4 0.9,-0.6 0.3,-0.2 0.6,-0.4 1,-0.5 0.3,-0.1 0.6,-0.3 1,-0.4 -0.6,0.2 -1.3,0.4 -1.9,0.7 -1.2,0.6 -2.1,1.5 -3.1,2.3 0,0 0,0 0,0 -0.1,0.1 -0.1,0.2 -0.2,0.3 -0.1,0.2 -0.2,0.3 -0.2,0.5 0,0.1 -0.1,0.1 -0.2,0.2 -0.2,0.1 -0.3,0.1 -0.5,0.2 -0.9,0.4 -1.4,1.1 -1.6,2 0.2,-0.4 0.5,-0.8 0.9,-1.1 -0.1,0.4 -0.2,0.7 -0.3,1 -0.1,0 -0.2,0.2 -0.3,0.3 z"
   inkscape:connector-curvature="0"
   style="fill:#424142" />

	<path
   id="path56"
   d="m 97.6,61.7 c -0.4,1.1 -1,2 -1.7,2.8 -1.2,1.2 -2.6,1.9 -4,1.9 v 0 c -1.4,0 -2.8,-0.7 -4,-1.9 -0.7,-0.7 -1.2,-1.7 -1.7,-2.8 H 84 c 0,0 0,0.1 0.1,0.1 0.5,1.6 1.3,3 2.4,4.1 1.6,1.6 3.5,2.5 5.5,2.5 v 0 c 2,0 3.9,-0.9 5.4,-2.5 1,-1 1.8,-2.3 2.3,-3.9 0,-0.1 0.1,-0.2 0.2,-0.3 z"
   inkscape:connector-curvature="0"
   style="fill:#424142" />

	<path
   id="path58"
   d="m 113.5,87.3 -0.4,-4.1 c -0.7,-6.2 -4.3,-9.6 -10.3,-10.8 -1.4,-0.3 -3.2,-2.3 -3.9,-4 l -0.4,0.3 c -1.9,1.6 -4.2,2.4 -6.6,2.4 -2.4,0 -4.6,-0.8 -6.6,-2.4 l 0.6,0.5 c -0.3,-0.2 -0.7,-0.5 -1,-0.8 -0.8,1.7 -2.6,3.7 -3.9,4 -6,1.2 -9.5,4.6 -10.3,10.8 l -0.5,4.5 c 8.9,2.3 24.7,4.6 43.3,-0.4 z"
   inkscape:connector-curvature="0"
   style="fill:#424142" />

</g>
    </g>
  </g>
</svg>
